<svg width="130" height="63" viewBox="0 0 130 63" fill="none" xmlns="http://www.w3.org/2000/svg">
<g clip-path="url(#clip0_1392_9149)">
<path d="M101.465 40.2887C101.59 40.0206 101.686 39.8336 101.764 39.64C102.79 37.108 103.813 34.576 104.836 32.044C105.733 29.8232 106.634 27.6037 107.522 25.3791C108.429 23.106 108.571 20.7675 108.043 18.3859C107.916 17.8144 107.742 17.2533 107.582 16.6896C107.484 16.3443 107.518 16.2881 107.881 16.2881C110.136 16.2868 112.39 16.2868 114.646 16.292C114.755 16.292 114.941 16.3299 114.957 16.3875C114.985 16.4921 114.942 16.6425 114.879 16.7419C113.588 18.7351 112.419 20.8002 111.449 22.9687C110.682 24.6846 110 26.4384 109.291 28.1805C108.324 30.5543 107.365 32.932 106.407 35.3097C105.425 37.7423 104.45 40.1789 103.468 42.6115C102.298 45.5098 101.125 48.408 99.9494 51.3036C99.2422 53.0457 98.5766 54.8087 97.8031 56.5207C96.6968 58.9664 95.155 61.0524 92.6395 62.2164C90.9755 62.9868 89.2179 63.1372 87.4226 62.9031C85.8561 62.6991 84.339 62.2845 82.8583 61.7286C82.5827 61.6253 82.5203 61.5037 82.5801 61.2277C83.0988 58.7885 83.6071 56.348 84.1193 53.9076C84.1427 53.7964 84.1895 53.6905 84.2467 53.5191C84.3884 53.6408 84.4872 53.7179 84.5782 53.8042C85.8392 55.0075 87.1899 56.0839 88.7863 56.815C89.6079 57.1916 90.4659 57.4663 91.3668 57.4937C92.9554 57.5434 94.1852 56.8307 95.1264 55.5646C95.8154 54.6374 96.1716 53.5492 96.6084 52.5003C96.7917 52.0582 96.9529 51.6057 97.1388 51.1637C97.2584 50.8812 97.2571 50.6287 97.1271 50.3397C95.1537 45.9466 93.1933 41.5495 91.2238 37.1538C89.5884 33.5022 87.9361 29.8585 86.3111 26.203C85.0475 23.361 83.6058 20.6184 81.856 18.0472C81.5674 17.6221 81.2333 17.2284 80.9343 16.8099C80.8511 16.6922 80.8186 16.5392 80.7627 16.4019C80.8927 16.3639 81.0214 16.2946 81.1514 16.2946C85.5181 16.2881 89.8848 16.2894 94.2515 16.2894C94.6636 16.2894 94.6831 16.3365 94.5635 16.721C93.6457 19.6898 93.6418 22.6168 94.9353 25.4981C96.0442 27.9673 97.1154 30.4536 98.2048 32.932C99.2227 35.2456 100.242 37.5579 101.262 39.8715C101.31 39.984 101.37 40.0952 101.465 40.2887Z" fill="black"/>
<path d="M128.431 21.0619C128.431 27.1095 128.439 33.1571 128.427 39.2047C128.422 41.9093 128.817 44.5591 129.453 47.1774C129.619 47.8641 129.803 48.5481 129.963 49.2373C130.054 49.6284 129.999 49.682 129.605 49.682C126.038 49.682 122.471 49.682 118.904 49.6807C118.524 49.6807 118.484 49.6075 118.586 49.2242C119.502 45.8094 120.161 42.3619 120.15 38.7979C120.123 29.703 120.141 20.6081 120.141 11.5132C120.141 9.07532 119.803 6.68192 119.175 4.33168C118.94 3.4528 118.664 2.58568 118.404 1.71333C118.287 1.32228 118.337 1.25165 118.727 1.20326C120.928 0.92338 123.127 0.636957 125.328 0.355765C126.239 0.239365 127.151 0.13212 128.062 0.0104882C128.321 -0.0235164 128.447 0.0484164 128.432 0.329608C128.419 0.592489 128.432 0.857987 128.432 1.12087C128.431 7.76615 128.431 14.414 128.431 21.0619Z" fill="black"/>
<path d="M21.0743 41.8138C21.3174 41.2135 21.5319 40.6982 21.7373 40.1789C22.8865 37.2833 24.0357 34.389 25.1797 31.4921C26.0728 29.2295 26.9906 26.9773 27.8317 24.6951C28.4583 22.9949 28.5025 21.2109 28.2321 19.4361C28.0904 18.5062 27.7979 17.5986 27.56 16.6844C27.4729 16.347 27.5041 16.2855 27.8629 16.2855C30.1184 16.2855 32.3726 16.2842 34.6281 16.2907C34.7581 16.2907 34.9596 16.3273 34.9973 16.4071C35.0415 16.5013 34.97 16.6818 34.9011 16.7942C33.5998 18.8921 32.3492 21.0226 31.3911 23.3035C30.2367 26.054 29.1408 28.8279 28.0267 31.5954C26.7748 34.7068 25.5333 37.8235 24.2866 40.9375C23.1647 43.7403 22.0389 46.5417 20.9261 49.3471C20.826 49.6008 20.6921 49.6884 20.4243 49.6858C18.8851 49.6754 17.3459 49.6754 15.8067 49.6858C15.5298 49.6871 15.3881 49.5995 15.2737 49.3314C13.78 45.8132 12.2681 42.3029 10.7666 38.7887C9.2274 35.1868 7.683 31.5862 6.1607 27.9765C4.8789 24.937 3.5347 21.9302 1.7797 19.1314C1.2662 18.3101 0.6929 17.5267 0.1534 16.721C0.0845 16.6177 0.0507 16.4921 0 16.3757C0.1183 16.3456 0.2366 16.2907 0.3549 16.2894C4.7216 16.2842 9.0883 16.2855 13.4563 16.2842C13.8983 16.2842 13.9347 16.347 13.8034 16.7616C13.0429 19.1641 12.8778 21.6033 13.6422 24.0189C14.118 25.5217 14.781 26.9655 15.3881 28.4238C16.6465 31.4424 17.9231 34.4531 19.1919 37.4664C19.7639 38.824 20.332 40.1829 20.904 41.5417C20.93 41.6058 20.9768 41.6608 21.0743 41.8138Z" fill="black"/>
<path d="M77.923 43.0707C77.8827 43.2328 77.8762 43.3035 77.8489 43.3636C77.0221 45.2783 75.8638 46.9498 74.2023 48.2223C71.6894 50.1488 68.8385 50.6668 65.8004 50.0063C63.3278 49.4687 61.6144 47.9163 60.5835 45.5961C59.797 43.8279 59.5812 41.9603 59.5838 40.0456C59.5916 33.2891 59.5877 26.5327 59.5864 19.7762C59.5864 18.8973 59.6423 19.019 58.8454 19.015C57.6169 19.0085 56.3871 19.0046 55.1586 19.0216C54.8245 19.0255 54.7192 18.9169 54.7361 18.5848C54.7621 18.0695 54.7543 17.5528 54.7374 17.0375C54.7283 16.7812 54.818 16.6413 55.0546 16.5497C57.7079 15.5217 60.1103 14.0765 62.2254 12.1579C64.1377 10.425 65.7003 8.4043 67.0549 6.21232C67.1303 6.09069 67.1888 5.93636 67.2993 5.86312C67.415 5.78726 67.5866 5.7598 67.7257 5.77549C67.7777 5.78203 67.8375 5.96775 67.844 6.0763C67.8609 6.33918 67.8505 6.60337 67.8505 6.86756C67.8492 9.86781 67.8531 12.8681 67.8375 15.8683C67.8362 16.2214 67.9688 16.2881 68.2795 16.2868C71.0238 16.2777 73.7682 16.2881 76.5125 16.2751C76.844 16.2737 76.9558 16.3705 76.9454 16.7014C76.9259 17.3253 76.9246 17.9504 76.9454 18.573C76.9571 18.913 76.8544 19.0242 76.4995 19.0229C73.7552 19.0085 71.0108 19.0177 68.2665 19.0111C67.9779 19.0098 67.8388 19.0647 67.8388 19.4048C67.8492 25.969 67.8479 32.5332 67.8518 39.0987C67.8518 40.0626 67.9207 41.0186 68.2522 41.9354C68.8372 43.5559 70.0254 44.4348 71.6946 44.6244C73.785 44.8624 75.7065 44.2647 77.5317 43.2825C77.6331 43.2276 77.7345 43.1727 77.923 43.0707Z" fill="black"/>
<path d="M48.8632 28.9889C48.8632 32.4809 48.8645 35.9729 48.8619 39.4662C48.8606 41.3325 49.0543 43.1779 49.4508 44.9998C49.7641 46.4398 50.0943 47.8758 50.4271 49.3118C50.4921 49.593 50.3972 49.6833 50.1281 49.6833C46.5479 49.6793 42.969 49.6793 39.3888 49.6833C39.0859 49.6833 39.0105 49.5577 39.0755 49.2831C39.3225 48.2328 39.5669 47.1826 39.8113 46.1324C40.3352 43.8816 40.6407 41.5993 40.6511 39.2883C40.6706 35.1005 40.6693 30.9114 40.6511 26.7236C40.6407 24.3525 40.3443 22.0088 39.8035 19.6991C39.5747 18.7195 39.3264 17.7438 39.0963 16.7629C38.9962 16.3352 39.0456 16.2842 39.4889 16.2842C42.4607 16.2842 45.4312 16.2908 48.403 16.2764C48.7722 16.2751 48.8684 16.3902 48.8671 16.7485C48.8567 20.8291 48.8606 24.9096 48.8606 28.9889C48.8619 28.9889 48.8632 28.9889 48.8632 28.9889Z" fill="black"/>
<path d="M38.9063 5.75585C38.8959 2.84192 41.3425 0.422362 44.3078 0.411899C47.2575 0.401436 49.7404 2.81968 49.7599 5.72054C49.7794 8.66585 47.3199 11.126 44.3429 11.1377C41.3555 11.1495 38.9167 8.73517 38.9063 5.75585Z" fill="#A1D5B0"/>
</g>
<defs>
<clipPath id="clip0_1392_9149">
<rect width="130" height="63" fill="white"/>
</clipPath>
</defs>
</svg>
