<svg width="25" height="24" viewBox="0 0 25 24" fill="none" xmlns="http://www.w3.org/2000/svg">
<path d="M12.3018 0C5.79914 0 0.526611 5.27253 0.526611 11.7751C0.526611 18.2778 5.79914 23.5503 12.3018 23.5503C18.8044 23.5503 24.0769 18.2778 24.0769 11.7751C24.0769 5.27253 18.8044 0 12.3018 0ZM17.9607 8.87604C17.9685 8.99958 17.9685 9.12837 17.9685 9.25453C17.9685 13.113 15.03 17.5576 9.66024 17.5576C8.00436 17.5576 6.46938 17.0766 5.17622 16.2487C5.41277 16.2749 5.63881 16.2854 5.88062 16.2854C7.24738 16.2854 8.50375 15.8229 9.50516 15.0396C8.22251 15.0133 7.14488 14.1722 6.7769 13.0157C7.22636 13.0815 7.63113 13.0815 8.09372 12.9632C7.43328 12.829 6.83965 12.4703 6.4137 11.9481C5.98775 11.4258 5.75574 10.7722 5.75709 10.0982V10.0614C6.14346 10.2796 6.59817 10.4136 7.07391 10.432C6.67398 10.1655 6.346 9.80442 6.11905 9.38077C5.8921 8.95713 5.77318 8.48403 5.77286 8.00342C5.77286 7.45935 5.91479 6.96258 6.16975 6.53153C6.90281 7.43395 7.81756 8.17201 8.85454 8.69775C9.89153 9.22349 11.0275 9.52513 12.1887 9.58308C11.7761 7.59865 13.2585 5.99271 15.0405 5.99271C15.8816 5.99271 16.6386 6.34491 17.1721 6.91264C17.8319 6.78911 18.4627 6.54204 19.0252 6.21087C18.807 6.88636 18.3497 7.45672 17.7425 7.81681C18.3313 7.75373 18.899 7.59077 19.4247 7.3621C19.0278 7.9456 18.531 8.46339 17.9607 8.87604Z" fill="black"/>
</svg>
