<svg width="96" height="46" viewBox="0 0 96 46" fill="none" xmlns="http://www.w3.org/2000/svg">
<g clip-path="url(#clip0_1392_6530)">
<path d="M74.9277 29.4172C75.0198 29.2214 75.0909 29.0848 75.1485 28.9435C75.9059 27.0947 76.6614 25.2459 77.4169 23.3972C78.0793 21.7756 78.7446 20.1551 79.4003 18.5307C80.0704 16.871 80.175 15.1636 79.7853 13.4246C79.6912 13.0073 79.5625 12.5976 79.4445 12.186C79.3725 11.9339 79.3974 11.8929 79.6653 11.8929C81.3309 11.8919 82.9955 11.8919 84.6611 11.8957C84.7417 11.8957 84.879 11.9234 84.8905 11.9654C84.9117 12.0418 84.88 12.1517 84.8329 12.2242C83.8797 13.6796 83.0166 15.1874 82.3005 16.7708C81.7341 18.0236 81.2301 19.3042 80.7069 20.5762C79.9926 22.3095 79.2841 24.0456 78.5766 25.7817C77.8518 27.5579 77.1318 29.3369 76.407 31.1132C75.543 33.2293 74.6761 35.3455 73.8083 37.4598C73.2861 38.7318 72.7945 40.019 72.2233 41.2691C71.4064 43.0548 70.2678 44.578 68.4102 45.4279C67.1814 45.9903 65.8835 46.1002 64.5577 45.9292C63.4009 45.7802 62.2806 45.4775 61.1872 45.0717C60.9836 44.9962 60.9376 44.9074 60.9817 44.7059C61.3648 42.9249 61.7401 41.143 62.1184 39.3611C62.1357 39.2799 62.1702 39.2025 62.2124 39.0774C62.3171 39.1663 62.39 39.2226 62.4572 39.2856C63.3884 40.1642 64.3859 40.9501 65.5648 41.4839C66.1715 41.7589 66.8051 41.9595 67.4704 41.9795C68.6435 42.0158 69.5517 41.4954 70.2467 40.571C70.7555 39.8939 71.0185 39.0994 71.3411 38.3335C71.4765 38.0108 71.5955 37.6804 71.7328 37.3576C71.8211 37.1513 71.8201 36.967 71.7241 36.756C70.2669 33.5483 68.8192 30.3377 67.3648 27.1281C66.1571 24.4619 64.9369 21.8014 63.7369 19.1323C62.8038 17.0572 61.7392 15.0547 60.447 13.1773C60.2339 12.8669 59.9872 12.5795 59.7664 12.2739C59.7049 12.1879 59.6809 12.0762 59.6396 11.9759C59.7356 11.9483 59.8307 11.8976 59.9267 11.8976C63.1513 11.8929 66.376 11.8938 69.6006 11.8938C69.9049 11.8938 69.9193 11.9282 69.831 12.209C69.1533 14.3767 69.1504 16.5139 70.1056 18.6176C70.9245 20.4206 71.7155 22.2359 72.52 24.0456C73.2717 25.7349 74.0243 27.4232 74.7779 29.1125C74.8134 29.1947 74.8576 29.2758 74.9277 29.4172Z" fill="black"/>
<path d="M94.8411 15.3785C94.8411 19.7942 94.8468 24.2099 94.8382 28.6256C94.8343 30.6005 95.1262 32.5352 95.5956 34.447C95.7185 34.9484 95.8539 35.4478 95.9719 35.9511C96.0391 36.2366 95.9988 36.2757 95.7079 36.2757C93.0737 36.2757 90.4395 36.2757 87.8053 36.2748C87.5249 36.2748 87.4952 36.2213 87.571 35.9415C88.2469 33.4481 88.7336 30.9309 88.7259 28.3286C88.7057 21.6879 88.7192 15.0472 88.7192 8.40645C88.7192 6.62642 88.4696 4.87886 88.0059 3.16281C87.8321 2.52108 87.6286 1.88795 87.4366 1.251C87.3502 0.965466 87.3867 0.913899 87.6747 0.878566C89.3 0.674206 90.9243 0.465072 92.5496 0.259757C93.2225 0.174767 93.8955 0.0964608 94.5684 0.00765029C94.7595 -0.0171784 94.8526 0.0353439 94.842 0.240658C94.8324 0.432604 94.842 0.626459 94.842 0.818404C94.8411 5.67051 94.8411 10.5245 94.8411 15.3785Z" fill="black"/>
<path d="M15.5626 30.5308C15.7421 30.0925 15.9005 29.7162 16.0522 29.3371C16.9008 27.2228 17.7494 25.1095 18.5942 22.9943C19.2538 21.3422 19.9315 19.6978 20.5526 18.0314C21.0154 16.79 21.048 15.4874 20.8483 14.1916C20.7437 13.5126 20.5277 12.8499 20.352 12.1824C20.2877 11.936 20.3107 11.8911 20.5757 11.8911C22.2413 11.8911 23.9059 11.8901 25.5715 11.8949C25.6675 11.8949 25.8163 11.9216 25.8442 11.9799C25.8768 12.0487 25.824 12.1804 25.7731 12.2626C24.8122 13.7943 23.8886 15.3499 23.1811 17.0154C22.3286 19.0236 21.5194 21.0491 20.6966 23.0698C19.7722 25.3416 18.8554 27.6172 17.9347 29.891C17.1062 31.9374 16.2749 33.9829 15.4531 36.0313C15.3792 36.2166 15.2803 36.2806 15.0826 36.2786C13.9459 36.271 12.8093 36.271 11.6726 36.2786C11.4682 36.2796 11.3635 36.2156 11.279 36.0199C10.176 33.451 9.05952 30.8879 7.95072 28.322C6.81408 25.6921 5.6736 23.0631 4.54944 20.4274C3.60288 18.2081 2.61024 16.0127 1.31424 13.9691C0.93504 13.3694 0.51168 12.7973 0.11328 12.2091C0.0624 12.1336 0.03744 12.042 0 11.957C0.08736 11.935 0.17472 11.8949 0.26208 11.894C3.48672 11.8901 6.71136 11.8911 9.93696 11.8901C10.2634 11.8901 10.2902 11.936 10.1933 12.2387C9.63168 13.9929 9.50976 15.7739 10.0742 17.5377C10.4256 18.635 10.9152 19.6892 11.3635 20.754C12.2928 22.958 13.2355 25.1563 14.1725 27.3565C14.5949 28.3478 15.0144 29.34 15.4368 30.3322C15.456 30.379 15.4906 30.4191 15.5626 30.5308Z" fill="black"/>
<path d="M57.5438 31.4485C57.514 31.5669 57.5092 31.6185 57.4891 31.6624C56.8785 33.0604 56.0232 34.2809 54.7963 35.21C52.9406 36.6167 50.8353 36.9948 48.5918 36.5126C46.7659 36.1201 45.5006 34.9866 44.7393 33.2925C44.1585 32.0014 43.9991 30.6377 44.001 29.2397C44.0068 24.3064 44.0039 19.3731 44.003 14.4398C44.003 13.7981 44.0442 13.8869 43.4558 13.8841C42.5486 13.8793 41.6404 13.8764 40.7332 13.8888C40.4865 13.8917 40.4087 13.8124 40.4212 13.5699C40.4404 13.1936 40.4346 12.8164 40.4222 12.4402C40.4154 12.253 40.4817 12.1508 40.6564 12.084C42.6158 11.3334 44.3898 10.2782 45.9518 8.87725C47.3639 7.61194 48.5179 6.13654 49.5182 4.53605C49.5739 4.44724 49.6171 4.33455 49.6987 4.28107C49.7841 4.22569 49.9108 4.20563 50.0135 4.21709C50.0519 4.22187 50.0961 4.35747 50.1009 4.43673C50.1134 4.62868 50.1057 4.82158 50.1057 5.01448C50.1047 7.20513 50.1076 9.39579 50.0961 11.5865C50.0951 11.8443 50.1931 11.893 50.4225 11.892C52.4491 11.8854 54.4756 11.893 56.5022 11.8834C56.747 11.8825 56.8296 11.9532 56.8219 12.1948C56.8075 12.6503 56.8065 13.1067 56.8219 13.5613C56.8305 13.8096 56.7547 13.8907 56.4926 13.8898C54.466 13.8793 52.4395 13.886 50.4129 13.8812C50.1998 13.8802 50.0971 13.9204 50.0971 14.1686C50.1047 18.9615 50.1038 23.7544 50.1067 28.5483C50.1067 29.2521 50.1575 29.9502 50.4023 30.6196C50.8343 31.8028 51.7118 32.4445 52.9444 32.583C54.4881 32.7568 55.907 32.3204 57.2548 31.6032C57.3297 31.5631 57.4046 31.523 57.5438 31.4485Z" fill="black"/>
<path d="M36.0835 21.1665C36.0835 23.7163 36.0845 26.266 36.0826 28.8167C36.0816 30.1794 36.2246 31.5268 36.5174 32.8571C36.7488 33.9085 36.9926 34.957 37.2384 36.0055C37.2864 36.2108 37.2163 36.2767 37.0176 36.2767C34.3738 36.2739 31.7309 36.2739 29.0871 36.2767C28.8634 36.2767 28.8077 36.1851 28.8557 35.9845C29.0381 35.2177 29.2186 34.4509 29.3991 33.684C29.7859 32.0406 30.0115 30.3742 30.0192 28.6868C30.0336 25.629 30.0327 22.5703 30.0192 19.5126C30.0115 17.7812 29.7927 16.07 29.3933 14.3835C29.2243 13.6683 29.041 12.9559 28.8711 12.2396C28.7971 11.9274 28.8336 11.8901 29.161 11.8901C31.3555 11.8901 33.5491 11.8949 35.7437 11.8844C36.0163 11.8835 36.0874 11.9675 36.0864 12.2291C36.0787 15.2086 36.0816 18.188 36.0816 21.1665C36.0826 21.1665 36.0835 21.1665 36.0835 21.1665Z" fill="black"/>
<path d="M28.7305 4.20274C28.7228 2.0751 30.5295 0.308446 32.7193 0.300806C34.8975 0.293166 36.7311 2.05887 36.7455 4.17695C36.7599 6.3275 34.9436 8.12377 32.7452 8.13236C30.5391 8.14095 28.7382 6.37811 28.7305 4.20274Z" fill="#A1D5B0"/>
</g>
<defs>
<clipPath id="clip0_1392_6530">
<rect width="96" height="46" fill="white"/>
</clipPath>
</defs>
</svg>
