<svg width="24" height="24" viewBox="0 0 24 24" fill="none" xmlns="http://www.w3.org/2000/svg">
<path d="M11.7751 0C5.27183 0 0 5.27183 0 11.7751C0 18.2785 5.27183 23.5503 11.7751 23.5503C18.2785 23.5503 23.5503 18.2785 23.5503 11.7751C23.5503 5.27183 18.2785 0 11.7751 0ZM8.89269 16.6557H6.50822V8.98223H8.89269V16.6557ZM7.68574 8.04022C6.93262 8.04022 6.44567 7.50666 6.44567 6.84676C6.44567 6.17337 6.94734 5.65575 7.7164 5.65575C8.48547 5.65575 8.95647 6.17337 8.97119 6.84676C8.97119 7.50666 8.48547 8.04022 7.68574 8.04022ZM17.6014 16.6557H15.2169V12.4032C15.2169 11.4133 14.871 10.7411 14.0087 10.7411C13.3501 10.7411 12.9588 11.1962 12.7858 11.6341C12.7221 11.7899 12.7061 12.0107 12.7061 12.2302V16.6545H10.3204V11.4293C10.3204 10.4713 10.2898 9.67034 10.2579 8.981H12.3296L12.4387 10.0469H12.4866C12.8006 9.54646 13.5696 8.80806 14.8563 8.80806C16.4251 8.80806 17.6014 9.85923 17.6014 12.1186V16.6557V16.6557Z" fill="black"/>
</svg>
