<svg width="26" height="18" viewBox="0 0 26 18" fill="none" xmlns="http://www.w3.org/2000/svg">
<path d="M25.4576 3.24355C25.3109 2.72037 25.0253 2.24671 24.6309 1.87292C24.2254 1.48763 23.7284 1.21203 23.1869 1.07212C21.1601 0.537891 13.0398 0.537891 13.0398 0.537891C9.65461 0.499376 6.27021 0.668776 2.90574 1.04514C2.36417 1.19538 1.86812 1.47714 1.46171 1.86536C1.06239 2.24957 0.773157 2.72336 0.622063 3.24248C0.259106 5.19779 0.0827569 7.18316 0.0953927 9.17184C0.0824417 11.1587 0.258358 13.1435 0.622063 15.1012C0.76992 15.6182 1.05808 16.0898 1.45848 16.4708C1.85888 16.8517 2.35749 17.1269 2.90574 17.2726C4.95954 17.8058 13.0398 17.8058 13.0398 17.8058C16.4294 17.8444 19.8181 17.675 23.1869 17.2985C23.7284 17.1586 24.2254 16.883 24.6309 16.4977C25.0302 16.1168 25.3141 15.643 25.4565 15.1271C25.829 13.1725 26.0101 11.1863 25.9972 9.19666C26.0252 7.19855 25.8444 5.20299 25.4576 3.24248V3.24355ZM10.4583 12.8672V5.47759L17.2143 9.17292L10.4583 12.8672Z" fill="black"/>
</svg>
